<svg width="847" height="690" viewBox="0 0 847 690" fill="none" xmlns="http://www.w3.org/2000/svg">
<mask id="mask0_29_169" style="mask-type:alpha" maskUnits="userSpaceOnUse" x="383" y="2" width="173" height="321">
<path d="M555.484 137.366L483.431 322.434L383.852 187.15L455.905 2.09302L555.484 137.366Z" fill="#8B8B8B"/>
</mask>
<g mask="url(#mask0_29_169)">
<path d="M555.484 137.366L483.431 322.434L383.852 187.15L455.905 2.09302L555.484 137.366Z" fill="url(#paint0_linear_29_169)"/>
</g>
<mask id="mask1_29_169" style="mask-type:alpha" maskUnits="userSpaceOnUse" x="455" y="0" width="293" height="138">
<path d="M747.482 135.284L555.466 137.366L455.887 2.09351L647.903 -1.20445e-07L747.482 135.284Z" fill="#E7E7E7"/>
</mask>
<g mask="url(#mask1_29_169)">
<path d="M747.482 135.284L555.466 137.366L455.887 2.09351L647.903 -1.20445e-07L747.482 135.284Z" fill="url(#paint1_linear_29_169)"/>
</g>
<mask id="mask2_29_169" style="mask-type:alpha" maskUnits="userSpaceOnUse" x="483" y="135" width="265" height="188">
<path d="M747.501 135.28L675.436 320.337L483.432 322.43L555.485 137.362L747.501 135.28Z" fill="#B8B8B8"/>
</mask>
<g mask="url(#mask2_29_169)">
<path d="M747.501 135.28L675.436 320.337L483.432 322.43L555.485 137.362L747.501 135.28Z" fill="url(#paint2_linear_29_169)"/>
</g>
<mask id="mask3_29_169" style="mask-type:alpha" maskUnits="userSpaceOnUse" x="191" y="3" width="173" height="322">
<path d="M363.449 139.252L291.396 324.32L191.816 189.036L263.87 3.979L363.449 139.252Z" fill="#8B8B8B"/>
</mask>
<g mask="url(#mask3_29_169)">
<path d="M363.449 139.252L291.396 324.32L191.816 189.036L263.87 3.979L363.449 139.252Z" fill="url(#paint3_linear_29_169)"/>
</g>
<mask id="mask4_29_169" style="mask-type:alpha" maskUnits="userSpaceOnUse" x="263" y="1" width="293" height="139">
<path d="M555.446 137.17L363.43 139.252L263.851 3.97949L455.867 1.88599L555.446 137.17Z" fill="#E7E7E7"/>
</mask>
<g mask="url(#mask4_29_169)">
<path d="M555.446 137.17L363.43 139.252L263.851 3.97949L455.867 1.88599L555.446 137.17Z" fill="url(#paint4_linear_29_169)"/>
</g>
<mask id="mask5_29_169" style="mask-type:alpha" maskUnits="userSpaceOnUse" x="291" y="137" width="265" height="188">
<path d="M555.469 137.167L483.404 322.224L291.399 324.317L363.453 139.249L555.469 137.167Z" fill="#B8B8B8"/>
</mask>
<g mask="url(#mask5_29_169)">
<path d="M555.469 137.167L483.404 322.224L291.399 324.317L363.453 139.249L555.469 137.167Z" fill="#769F2B"/>
</g>
<mask id="mask6_29_169" style="mask-type:alpha" maskUnits="userSpaceOnUse" x="483" y="137" width="172" height="321">
<path d="M654.985 272.576L582.932 457.644L483.353 322.36L555.406 137.303L654.985 272.576Z" fill="#8B8B8B"/>
</mask>
<g mask="url(#mask6_29_169)">
<path d="M654.985 272.576L582.932 457.644L483.353 322.36L555.406 137.303L654.985 272.576Z" fill="#9ECF43"/>
</g>
<mask id="mask7_29_169" style="mask-type:alpha" maskUnits="userSpaceOnUse" x="555" y="135" width="292" height="138">
<path d="M846.992 270.495L654.976 272.577L555.397 137.304L747.412 135.21L846.992 270.495Z" fill="#E7E7E7"/>
</mask>
<g mask="url(#mask7_29_169)">
<path d="M846.992 270.495L654.976 272.577L555.397 137.304L747.412 135.21L846.992 270.495Z" fill="url(#paint5_linear_29_169)"/>
</g>
<mask id="mask8_29_169" style="mask-type:alpha" maskUnits="userSpaceOnUse" x="582" y="270" width="265" height="188">
<path d="M847 270.49L774.935 455.547L582.931 457.641L654.984 272.572L847 270.49Z" fill="#B8B8B8"/>
</mask>
<g mask="url(#mask8_29_169)">
<path d="M847 270.49L774.935 455.547L582.931 457.641L654.984 272.572L847 270.49Z" fill="#769F2B"/>
</g>
<mask id="mask9_29_169" style="mask-type:alpha" maskUnits="userSpaceOnUse" x="399" y="369" width="173" height="321">
<path d="M571.604 504.399L499.55 689.468L399.971 554.183L472.024 369.127L571.604 504.399Z" fill="#8B8B8B"/>
</mask>
<g mask="url(#mask9_29_169)">
<path d="M571.604 504.399L499.55 689.468L399.971 554.183L472.024 369.127L571.604 504.399Z" fill="#9ECF43"/>
</g>
<mask id="mask10_29_169" style="mask-type:alpha" maskUnits="userSpaceOnUse" x="472" y="367" width="292" height="138">
<path d="M763.611 502.316L571.595 504.398L472.015 369.125L664.031 367.031L763.611 502.316Z" fill="#E7E7E7"/>
</mask>
<g mask="url(#mask10_29_169)">
<path d="M763.611 502.316L571.595 504.398L472.015 369.125L664.031 367.031L763.611 502.316Z" fill="#C3E781"/>
</g>
<mask id="mask11_29_169" style="mask-type:alpha" maskUnits="userSpaceOnUse" x="499" y="502" width="265" height="188">
<path d="M763.62 502.312L691.555 687.369L499.551 689.463L571.604 504.395L763.62 502.312Z" fill="#B8B8B8"/>
</mask>
<g mask="url(#mask11_29_169)">
<path d="M763.62 502.312L691.555 687.369L499.551 689.463L571.604 504.395L763.62 502.312Z" fill="#769F2B"/>
</g>
<mask id="mask12_29_169" style="mask-type:alpha" maskUnits="userSpaceOnUse" x="0" y="5" width="172" height="322">
<path d="M171.633 141.186L99.5794 326.254L-9.20582e-05 190.97L72.0533 5.91284L171.633 141.186Z" fill="#8B8B8B"/>
</mask>
<g mask="url(#mask12_29_169)">
<path d="M171.633 141.186L99.5794 326.254L-9.20582e-05 190.97L72.0533 5.91284L171.633 141.186Z" fill="url(#paint6_linear_29_169)"/>
</g>
<mask id="mask13_29_169" style="mask-type:alpha" maskUnits="userSpaceOnUse" x="72" y="3" width="292" height="139">
<path d="M363.639 139.103L171.623 141.185L72.0437 5.91211L264.06 3.8186L363.639 139.103Z" fill="#E7E7E7"/>
</mask>
<g mask="url(#mask13_29_169)">
<path d="M363.639 139.103L171.623 141.185L72.0437 5.91211L264.06 3.8186L363.639 139.103Z" fill="url(#paint7_linear_29_169)"/>
</g>
<mask id="mask14_29_169" style="mask-type:alpha" maskUnits="userSpaceOnUse" x="99" y="139" width="265" height="188">
<path d="M363.649 139.099L291.584 324.155L99.5799 326.249L171.633 141.181L363.649 139.099Z" fill="#B8B8B8"/>
</mask>
<g mask="url(#mask14_29_169)">
<path d="M363.649 139.099L291.584 324.155L99.5799 326.249L171.633 141.181L363.649 139.099Z" fill="url(#paint8_linear_29_169)"/>
</g>
<mask id="mask15_29_169" style="mask-type:alpha" maskUnits="userSpaceOnUse" x="99" y="141" width="173" height="321">
<path d="M271.148 276.395L199.094 461.463L99.5146 326.179L171.568 141.122L271.148 276.395Z" fill="#8B8B8B"/>
</mask>
<g mask="url(#mask15_29_169)">
<path d="M271.148 276.395L199.094 461.463L99.5146 326.179L171.568 141.122L271.148 276.395Z" fill="url(#paint9_linear_29_169)"/>
</g>
<mask id="mask16_29_169" style="mask-type:alpha" maskUnits="userSpaceOnUse" x="171" y="139" width="293" height="138">
<path d="M463.144 274.312L271.128 276.394L171.549 141.121L363.565 139.028L463.144 274.312Z" fill="#E7E7E7"/>
</mask>
<g mask="url(#mask16_29_169)">
<path d="M463.144 274.312L271.128 276.394L171.549 141.121L363.565 139.028L463.144 274.312Z" fill="url(#paint10_linear_29_169)"/>
</g>
<mask id="mask17_29_169" style="mask-type:alpha" maskUnits="userSpaceOnUse" x="199" y="274" width="265" height="188">
<path d="M463.163 274.309L391.098 459.366L199.093 461.459L271.147 276.391L463.163 274.309Z" fill="#B8B8B8"/>
</mask>
<g mask="url(#mask17_29_169)">
<path d="M463.163 274.309L391.098 459.366L199.093 461.459L271.147 276.391L463.163 274.309Z" fill="#769F2B"/>
</g>
<path d="M171.625 141.206L171.633 141.184L72.0533 5.91162L-9.20582e-05 190.968L99.5148 326.165L99.5094 326.178L199.089 461.463L271.142 276.394L171.625 141.206Z" fill="#9ECF43"/>
<path d="M747.467 135.285L747.5 135.284L647.921 -3.61223e-07L456.037 2.09207L455.886 1.88631L264.186 3.97637L264.07 3.81868L72.0538 5.91219L171.587 141.122L171.563 141.122L271.143 276.395L463.159 274.313L363.741 139.249L555.341 137.172L555.439 137.304L555.397 137.305L654.976 272.577L846.992 270.495L747.467 135.285Z" fill="#C3E781"/>
<defs>
<linearGradient id="paint0_linear_29_169" x1="555.826" y1="136.355" x2="413.674" y2="138.88" gradientUnits="userSpaceOnUse">
<stop stop-color="#AAFF9C"/>
<stop offset="1" stop-color="#71F86D"/>
</linearGradient>
<linearGradient id="paint1_linear_29_169" x1="601.685" y1="-9.14542e-08" x2="601.685" y2="137.366" gradientUnits="userSpaceOnUse">
<stop stop-color="#BDFFA6"/>
<stop offset="1" stop-color="#E8FFE5"/>
</linearGradient>
<linearGradient id="paint2_linear_29_169" x1="649.406" y1="265.183" x2="552.755" y2="160.745" gradientUnits="userSpaceOnUse">
<stop stop-color="#39A443"/>
<stop offset="1" stop-color="#71DB6F"/>
</linearGradient>
<linearGradient id="paint3_linear_29_169" x1="363.79" y1="138.241" x2="221.639" y2="140.766" gradientUnits="userSpaceOnUse">
<stop stop-color="#AAFF9C"/>
<stop offset="1" stop-color="#71F86D"/>
</linearGradient>
<linearGradient id="paint4_linear_29_169" x1="409.649" y1="1.88599" x2="409.649" y2="139.252" gradientUnits="userSpaceOnUse">
<stop stop-color="#BDFFA6"/>
<stop offset="1" stop-color="#E8FFE5"/>
</linearGradient>
<linearGradient id="paint5_linear_29_169" x1="701.194" y1="135.21" x2="701.194" y2="272.577" gradientUnits="userSpaceOnUse">
<stop stop-color="#BDFFA6"/>
<stop offset="1" stop-color="#E8FFE5"/>
</linearGradient>
<linearGradient id="paint6_linear_29_169" x1="171.974" y1="140.175" x2="29.8224" y2="142.7" gradientUnits="userSpaceOnUse">
<stop stop-color="#AAFF9C"/>
<stop offset="1" stop-color="#71F86D"/>
</linearGradient>
<linearGradient id="paint7_linear_29_169" x1="217.841" y1="3.8186" x2="217.841" y2="141.185" gradientUnits="userSpaceOnUse">
<stop stop-color="#BDFFA6"/>
<stop offset="1" stop-color="#E8FFE5"/>
</linearGradient>
<linearGradient id="paint8_linear_29_169" x1="265.554" y1="269.002" x2="168.904" y2="164.564" gradientUnits="userSpaceOnUse">
<stop stop-color="#39A443"/>
<stop offset="1" stop-color="#71DB6F"/>
</linearGradient>
<linearGradient id="paint9_linear_29_169" x1="271.489" y1="275.384" x2="129.337" y2="277.909" gradientUnits="userSpaceOnUse">
<stop stop-color="#AAFF9C"/>
<stop offset="1" stop-color="#71F86D"/>
</linearGradient>
<linearGradient id="paint10_linear_29_169" x1="317.346" y1="139.028" x2="317.346" y2="276.394" gradientUnits="userSpaceOnUse">
<stop stop-color="#BDFFA6"/>
<stop offset="1" stop-color="#E8FFE5"/>
</linearGradient>
</defs>
</svg>
