<svg width="1191" height="1094" viewBox="0 0 1191 1094" fill="none" xmlns="http://www.w3.org/2000/svg">
<path d="M276.506 294.484L445.61 322.618L555.117 190.873L385.956 162.713L276.506 294.484Z" fill="url(#paint0_linear_29_117)"/>
<path d="M276.51 294.483L337.216 453.091L506.361 481.209L445.613 322.617L276.51 294.483Z" fill="url(#paint1_linear_29_117)"/>
<path d="M445.622 322.62L506.37 481.212L615.878 349.467L555.13 190.875L445.622 322.62Z" fill="#029D29"/>
<path d="M227.345 585.088L396.507 613.248L505.956 481.478L336.81 453.359L227.345 585.088Z" fill="#058F29"/>
<path d="M227.35 585.089L288.071 743.738L457.217 771.856L396.511 613.249L227.35 585.089Z" fill="url(#paint2_linear_29_117)"/>
<path d="M396.519 613.247L457.225 771.855L566.732 640.11L505.969 481.476L396.519 613.247Z" fill="url(#paint3_linear_29_117)"/>
<path d="M88.3545 450.58L257.5 478.698L366.965 346.969L197.804 318.809L88.3545 450.58Z" fill="url(#paint4_linear_29_117)"/>
<path d="M88.3623 450.579L149.11 609.171L318.256 637.289L257.508 478.698L88.3623 450.579Z" fill="url(#paint5_linear_29_117)"/>
<path d="M257.507 478.697L318.255 637.289L427.72 505.56L366.972 346.968L257.507 478.697Z" fill="url(#paint6_linear_29_117)"/>
<path d="M765.214 557.969L934.359 586.088L1043.82 454.358L874.679 426.24L765.214 557.969Z" fill="url(#paint7_linear_29_117)"/>
<path d="M765.211 557.967L825.959 716.559L995.121 744.719L934.357 586.086L765.211 557.967Z" fill="url(#paint8_linear_29_117)"/>
<path d="M934.365 586.087L995.129 744.721L1104.58 612.95L1043.83 454.358L934.365 586.087Z" fill="url(#paint9_linear_29_117)"/>
<path d="M449.14 238.803L618.243 266.937L727.751 135.192L558.605 107.074L449.14 238.803Z" fill="url(#paint10_linear_29_117)"/>
<path d="M449.128 238.802L509.834 397.41L678.979 425.528L618.232 266.936L449.128 238.802Z" fill="url(#paint11_linear_29_117)"/>
<path d="M618.235 266.938L678.983 425.53L788.49 293.785L727.742 135.193L618.235 266.938Z" fill="url(#paint12_linear_29_117)"/>
<path d="M346.958 794.947L516.12 823.107L625.569 691.336L456.423 663.218L346.958 794.947Z" fill="url(#paint13_linear_29_117)"/>
<path d="M346.969 794.949L407.716 953.541L576.836 981.717L516.13 823.109L346.969 794.949Z" fill="url(#paint14_linear_29_117)"/>
<path d="M516.122 823.111L576.828 981.718L686.32 849.931L625.572 691.34L516.122 823.111Z" fill="url(#paint15_linear_29_117)"/>
<path d="M335.8 454.76L504.946 482.878L614.411 351.149L445.25 322.989L335.8 454.76Z" fill="url(#paint16_linear_29_117)"/>
<path d="M335.803 454.76L396.551 613.351L565.697 641.469L504.949 482.878L335.803 454.76Z" fill="url(#paint17_linear_29_117)"/>
<path d="M504.947 482.878L565.695 641.47L675.16 509.741L614.412 351.149L504.947 482.878Z" fill="url(#paint18_linear_29_117)"/>
<defs>
<linearGradient id="paint0_linear_29_117" x1="385.512" y1="162.878" x2="445.001" y2="322.844" gradientUnits="userSpaceOnUse">
<stop stop-color="#B1FFA4"/>
<stop offset="1" stop-color="#DDFFDC"/>
</linearGradient>
<linearGradient id="paint1_linear_29_117" x1="440.934" y1="343.168" x2="373.445" y2="466.719" gradientUnits="userSpaceOnUse">
<stop stop-color="#00DE23"/>
<stop offset="1" stop-color="#00DE23"/>
<stop offset="1" stop-color="#00DE23"/>
</linearGradient>
<linearGradient id="paint2_linear_29_117" x1="305.504" y1="736.202" x2="361.99" y2="597.693" gradientUnits="userSpaceOnUse">
<stop stop-color="#8DFF90"/>
<stop offset="1" stop-color="#00E05A"/>
</linearGradient>
<linearGradient id="paint3_linear_29_117" x1="565.712" y1="668.267" x2="407.758" y2="606.428" gradientUnits="userSpaceOnUse">
<stop stop-color="#09CF48"/>
<stop offset="1" stop-color="#038021"/>
</linearGradient>
<linearGradient id="paint4_linear_29_117" x1="197.36" y1="318.974" x2="256.849" y2="478.94" gradientUnits="userSpaceOnUse">
<stop stop-color="#B1FFA4"/>
<stop offset="1" stop-color="#DDFFDC"/>
</linearGradient>
<linearGradient id="paint5_linear_29_117" x1="252.825" y1="499.249" x2="185.343" y2="622.832" gradientUnits="userSpaceOnUse">
<stop stop-color="#8DFF90"/>
<stop offset="1" stop-color="#00FC56"/>
</linearGradient>
<linearGradient id="paint6_linear_29_117" x1="257.606" y1="477.132" x2="423.684" y2="501.996" gradientUnits="userSpaceOnUse">
<stop stop-color="#0CC447"/>
<stop offset="1" stop-color="#009825"/>
</linearGradient>
<linearGradient id="paint7_linear_29_117" x1="874.235" y1="426.405" x2="933.708" y2="586.33" gradientUnits="userSpaceOnUse">
<stop stop-color="#B1FFA4"/>
<stop offset="1" stop-color="#DDFFDC"/>
</linearGradient>
<linearGradient id="paint8_linear_29_117" x1="929.681" y1="606.654" x2="862.183" y2="730.241" gradientUnits="userSpaceOnUse">
<stop stop-color="#8DFF90"/>
<stop offset="1" stop-color="#00FC56"/>
</linearGradient>
<linearGradient id="paint9_linear_29_117" x1="934.47" y1="584.536" x2="1100.56" y2="609.389" gradientUnits="userSpaceOnUse">
<stop stop-color="#0CC447"/>
<stop offset="1" stop-color="#009825"/>
</linearGradient>
<linearGradient id="paint10_linear_29_117" x1="558.161" y1="107.239" x2="617.634" y2="267.163" gradientUnits="userSpaceOnUse">
<stop stop-color="#B1FFA4"/>
<stop offset="1" stop-color="#DDFFDC"/>
</linearGradient>
<linearGradient id="paint11_linear_29_117" x1="613.552" y1="287.487" x2="546.063" y2="411.038" gradientUnits="userSpaceOnUse">
<stop stop-color="#8DFF90"/>
<stop offset="1" stop-color="#00FC56"/>
</linearGradient>
<linearGradient id="paint12_linear_29_117" x1="618.335" y1="265.373" x2="784.447" y2="290.265" gradientUnits="userSpaceOnUse">
<stop stop-color="#0CC447"/>
<stop offset="1" stop-color="#009825"/>
</linearGradient>
<linearGradient id="paint13_linear_29_117" x1="455.979" y1="663.383" x2="515.468" y2="823.349" gradientUnits="userSpaceOnUse">
<stop stop-color="#B1FFA4"/>
<stop offset="1" stop-color="#DDFFDC"/>
</linearGradient>
<linearGradient id="paint14_linear_29_117" x1="511.399" y1="843.651" x2="443.895" y2="967.205" gradientUnits="userSpaceOnUse">
<stop stop-color="#8DFF90"/>
<stop offset="1" stop-color="#00FC56"/>
</linearGradient>
<linearGradient id="paint15_linear_29_117" x1="516.211" y1="821.518" x2="682.298" y2="846.37" gradientUnits="userSpaceOnUse">
<stop stop-color="#0CC447"/>
<stop offset="1" stop-color="#009825"/>
</linearGradient>
<linearGradient id="paint16_linear_29_117" x1="444.806" y1="323.154" x2="504.295" y2="483.121" gradientUnits="userSpaceOnUse">
<stop stop-color="#B1FFA4"/>
<stop offset="1" stop-color="#DDFFDC"/>
</linearGradient>
<linearGradient id="paint17_linear_29_117" x1="500.266" y1="503.43" x2="432.784" y2="627.013" gradientUnits="userSpaceOnUse">
<stop stop-color="#8DFF90"/>
<stop offset="1" stop-color="#00FC56"/>
</linearGradient>
<linearGradient id="paint18_linear_29_117" x1="505.046" y1="481.313" x2="671.124" y2="506.177" gradientUnits="userSpaceOnUse">
<stop stop-color="#0CC447"/>
<stop offset="1" stop-color="#009825"/>
</linearGradient>
</defs>
</svg>
