<svg width="723" height="590" viewBox="0 0 723 590" fill="none" xmlns="http://www.w3.org/2000/svg">
<mask id="mask0_29_291" style="mask-type:alpha" maskUnits="userSpaceOnUse" x="324" y="178" width="158" height="306">
<path d="M481.506 307.124L415.611 483.426L324.544 354.55L390.438 178.258L481.506 307.124Z" fill="#8B8B8B"/>
</mask>
<g mask="url(#mask0_29_291)">
<path d="M481.506 307.124L415.611 483.426L324.544 354.55L390.438 178.258L481.506 307.124Z" fill="#0E9996"/>
</g>
<mask id="mask1_29_291" style="mask-type:alpha" maskUnits="userSpaceOnUse" x="390" y="176" width="268" height="132">
<path d="M657.099 305.141L481.497 307.124L390.43 178.259L566.032 176.264L657.099 305.141Z" fill="#E7E7E7"/>
</mask>
<g mask="url(#mask1_29_291)">
<path d="M657.099 305.141L481.497 307.124L390.43 178.259L566.032 176.264L657.099 305.141Z" fill="url(#paint0_linear_29_291)"/>
</g>
<mask id="mask2_29_291" style="mask-type:alpha" maskUnits="userSpaceOnUse" x="415" y="305" width="243" height="179">
<path d="M657.13 305.139L591.225 481.43L415.633 483.425L481.528 307.122L657.13 305.139Z" fill="#B8B8B8"/>
</mask>
<g mask="url(#mask2_29_291)">
<path d="M657.13 305.139L591.225 481.43L415.633 483.425L481.528 307.122L657.13 305.139Z" fill="url(#paint1_linear_29_291)"/>
</g>
<mask id="mask3_29_291" style="mask-type:alpha" maskUnits="userSpaceOnUse" x="390" y="1" width="158" height="307">
<path d="M547.404 130.859L481.51 307.162L390.442 178.285L456.336 1.9939L547.404 130.859Z" fill="url(#paint2_linear_29_291)"/>
</mask>
<g mask="url(#mask3_29_291)">
<path d="M547.404 130.859L481.51 307.162L390.442 178.285L456.336 1.9939L547.404 130.859Z" fill="url(#paint3_linear_29_291)"/>
</g>
<mask id="mask4_29_291" style="mask-type:alpha" maskUnits="userSpaceOnUse" x="456" y="0" width="267" height="131">
<path d="M722.998 128.877L547.396 130.86L456.329 1.99483L631.931 0.000488281L722.998 128.877Z" fill="#E7E7E7"/>
</mask>
<g mask="url(#mask4_29_291)">
<path d="M722.998 128.877L547.396 130.86L456.329 1.99483L631.931 0.000488281L722.998 128.877Z" fill="url(#paint4_linear_29_291)"/>
</g>
<mask id="mask5_29_291" style="mask-type:alpha" maskUnits="userSpaceOnUse" x="481" y="128" width="242" height="180">
<path d="M723 128.875L657.095 305.167L481.504 307.161L547.398 130.859L723 128.875Z" fill="#B8B8B8"/>
</mask>
<g mask="url(#mask5_29_291)">
<path d="M723 128.875L657.095 305.167L481.504 307.161L547.398 130.859L723 128.875Z" fill="url(#paint5_linear_29_291)"/>
</g>
<mask id="mask6_29_291" style="mask-type:alpha" maskUnits="userSpaceOnUse" x="214" y="4" width="158" height="306">
<path d="M371.87 132.872L305.976 309.174L214.908 180.297L280.802 4.0061L371.87 132.872Z" fill="url(#paint6_linear_29_291)"/>
</mask>
<g mask="url(#mask6_29_291)">
<path d="M371.87 132.872L305.976 309.174L214.908 180.297L280.802 4.0061L371.87 132.872Z" fill="#57F8F4"/>
</g>
<mask id="mask7_29_291" style="mask-type:alpha" maskUnits="userSpaceOnUse" x="280" y="2" width="268" height="131">
<path d="M547.464 130.888L371.861 132.871L280.794 4.00582L456.396 2.01147L547.464 130.888Z" fill="#E7E7E7"/>
</mask>
<g mask="url(#mask7_29_291)">
<path d="M547.464 130.888L371.861 132.871L280.794 4.00582L456.396 2.01147L547.464 130.888Z" fill="url(#paint7_linear_29_291)"/>
</g>
<mask id="mask8_29_291" style="mask-type:alpha" maskUnits="userSpaceOnUse" x="305" y="130" width="243" height="180">
<path d="M547.465 130.886L481.56 307.178L305.968 309.172L371.862 132.87L547.465 130.886Z" fill="#B8B8B8"/>
</mask>
<g mask="url(#mask8_29_291)">
<path d="M547.465 130.886L481.56 307.178L305.968 309.172L371.862 132.87L547.465 130.886Z" fill="url(#paint8_linear_29_291)"/>
</g>
<path d="M547.444 130.859L722.998 128.876L631.931 0L456.328 1.99435L456.341 2.01177L280.794 4.00548L371.862 132.871L547.464 130.888L547.444 130.859Z" fill="#B5FFFD"/>
<mask id="mask9_29_291" style="mask-type:alpha" maskUnits="userSpaceOnUse" x="0" y="284" width="157" height="306">
<path d="M156.962 413.292L91.0674 589.595L0 460.718L65.8942 284.427L156.962 413.292Z" fill="#8B8B8B"/>
</mask>
<g mask="url(#mask9_29_291)">
<path d="M156.962 413.292L91.0674 589.595L0 460.718L65.8942 284.427L156.962 413.292Z" fill="#57F8F4"/>
</g>
<mask id="mask10_29_291" style="mask-type:alpha" maskUnits="userSpaceOnUse" x="65" y="282" width="268" height="132">
<path d="M332.556 411.309L156.953 413.292L65.886 284.427L241.488 282.432L332.556 411.309Z" fill="#E7E7E7"/>
</mask>
<g mask="url(#mask10_29_291)">
<path d="M332.556 411.309L156.953 413.292L65.886 284.427L241.488 282.432L332.556 411.309Z" fill="#B5FFFD"/>
</g>
<mask id="mask11_29_291" style="mask-type:alpha" maskUnits="userSpaceOnUse" x="91" y="411" width="242" height="179">
<path d="M332.566 411.307L266.661 587.598L91.0691 589.593L156.963 413.29L332.566 411.307Z" fill="#B8B8B8"/>
</mask>
<g mask="url(#mask11_29_291)">
<path d="M332.566 411.307L266.661 587.598L91.0691 589.593L156.963 413.29L332.566 411.307Z" fill="#00CFCA"/>
</g>
<path d="M722.999 128.875L657.105 305.139L657.13 305.138L591.225 481.43L415.633 483.424L481.506 307.178L305.968 309.172L371.862 132.869L547.386 130.887L547.397 130.858L722.999 128.875Z" fill="#00CFCA"/>
<defs>
<linearGradient id="paint0_linear_29_291" x1="523.765" y1="176.264" x2="523.765" y2="307.124" gradientUnits="userSpaceOnUse">
<stop stop-color="#BDFFA6"/>
<stop offset="1" stop-color="#E8FFE5"/>
</linearGradient>
<linearGradient id="paint1_linear_29_291" x1="567.42" y1="428.889" x2="541.149" y2="314.104" gradientUnits="userSpaceOnUse">
<stop stop-color="#069DA7"/>
<stop offset="1" stop-color="#6FFAE1"/>
</linearGradient>
<linearGradient id="paint2_linear_29_291" x1="547.55" y1="55.5453" x2="392.246" y2="146.318" gradientUnits="userSpaceOnUse">
<stop stop-color="#C2FFF4"/>
<stop offset="1" stop-color="#42E7E7"/>
</linearGradient>
<linearGradient id="paint3_linear_29_291" x1="547.55" y1="55.5453" x2="392.246" y2="146.318" gradientUnits="userSpaceOnUse">
<stop stop-color="#C2FFF4"/>
<stop offset="1" stop-color="#42E7E7"/>
</linearGradient>
<linearGradient id="paint4_linear_29_291" x1="638.977" y1="-14.977" x2="515.151" y2="164.374" gradientUnits="userSpaceOnUse">
<stop stop-color="#A6FFFF"/>
<stop offset="1" stop-color="#E5FFEB"/>
</linearGradient>
<linearGradient id="paint5_linear_29_291" x1="633.29" y1="252.626" x2="607.019" y2="137.841" gradientUnits="userSpaceOnUse">
<stop stop-color="#069DA7"/>
<stop offset="1" stop-color="#6FFAE1"/>
</linearGradient>
<linearGradient id="paint6_linear_29_291" x1="372.016" y1="57.5575" x2="216.712" y2="148.33" gradientUnits="userSpaceOnUse">
<stop stop-color="#C2FFF4"/>
<stop offset="1" stop-color="#42E7E7"/>
</linearGradient>
<linearGradient id="paint7_linear_29_291" x1="463.443" y1="-12.966" x2="339.616" y2="166.385" gradientUnits="userSpaceOnUse">
<stop stop-color="#A6FFFF"/>
<stop offset="1" stop-color="#E5FFEB"/>
</linearGradient>
<linearGradient id="paint8_linear_29_291" x1="457.755" y1="254.637" x2="431.484" y2="139.852" gradientUnits="userSpaceOnUse">
<stop stop-color="#069DA7"/>
<stop offset="1" stop-color="#6FFAE1"/>
</linearGradient>
</defs>
</svg>
