<svg width="464" height="450" viewBox="0 0 464 450" fill="none" xmlns="http://www.w3.org/2000/svg">
<path d="M314.703 446.125C283.408 437.743 256.591 415.104 242.696 385.864C227.21 353.271 232.683 317.092 231.858 282.277C231.452 265.744 229.615 248.878 223.483 233.383C220.425 225.665 216.294 218.469 211.097 211.997C205.583 205.156 199.103 199.193 192.384 193.584C178.741 182.222 164.041 172.003 152.702 158.157C142.257 145.401 134.514 130.44 130.02 114.576C120.387 80.6138 126.769 43.4445 146.713 14.3435C149.253 10.6416 152.024 7.06377 154.885 3.59947C155.432 2.94653 154.495 2.03174 153.915 2.68381C130.08 28.8286 119.753 66.9272 125.494 101.63C128.152 117.641 134.011 133.089 142.637 146.831C146.984 153.778 152.05 160.279 157.727 166.195C163.996 172.709 170.992 178.45 178.05 184.075C192.34 195.467 207.384 206.781 216.726 222.845C225.412 237.779 228.78 255.131 229.951 272.189C232.358 307.268 225.201 343.776 237.77 377.58C248.966 407.684 273.64 432.413 303.712 443.674C307.249 444.998 310.857 446.095 314.509 447.016C315.067 447.181 315.268 446.277 314.703 446.125Z" fill="url(#paint0_linear_38_416)"/>
<path d="M309.399 376.385C297.962 375.486 287.931 368.971 280.86 360.172C273.503 351.038 269.682 339.845 268.115 328.312C264.844 304.197 270.598 279.942 268.159 255.789C266.976 244.064 263.56 232.889 257.678 222.668C251.915 212.661 244.329 203.802 236.12 195.706C217.899 177.738 196.105 163.418 179.942 143.364C166.431 126.601 156.89 104.047 161.95 82.2725C162.535 79.7491 163.256 77.2489 164.159 74.8124C164.356 74.2876 163.469 73.963 163.233 74.4672C154.29 94.4174 161.187 118.23 172.579 135.67C186.856 157.519 208.806 172.602 227.87 189.859C236.742 197.895 245.185 206.514 252.038 216.374C258.967 226.341 263.889 237.426 265.935 249.429C270.135 274.04 264.036 298.941 266.244 323.65C267.276 335.161 270.134 346.669 276.505 356.437C282.398 365.487 291.114 373.223 301.666 376.154C304.205 376.862 306.805 377.239 309.452 377.342C310.085 377.398 310.02 376.434 309.399 376.385Z" fill="url(#paint1_linear_38_416)"/>
<path d="M208.412 116.145C205.626 129.034 209.253 142.578 215.106 154.093C221.47 166.577 230.688 177.285 240.792 186.891C252.575 198.105 265.447 208.177 276.63 220.017C281.999 225.702 287.037 231.79 291.036 238.519C294.579 244.489 297.323 250.929 299.132 257.632C302.63 270.642 302.374 285.031 295.493 296.928C294.642 298.398 293.701 299.819 292.689 301.186C292.214 301.828 293.074 302.701 293.614 302.061C302.426 291.609 304.466 277.293 302.353 264.143C301.243 257.249 299.093 250.563 296.116 244.248C292.959 237.555 288.811 231.477 284.11 225.784C273.643 213.099 260.806 202.682 248.604 191.757C237.73 182.039 227.389 171.727 219.731 159.215C212.737 147.787 208.287 134.916 208.873 121.399C208.944 119.712 209.094 118.034 209.302 116.371C209.377 115.765 208.533 115.546 208.412 116.145Z" fill="url(#paint2_linear_38_416)"/>
<defs>
<linearGradient id="paint0_linear_38_416" x1="158.31" y1="395.91" x2="301.841" y2="52.8553" gradientUnits="userSpaceOnUse">
<stop offset="0.0277" stop-color="#4DFFCA"/>
<stop offset="0.7154" stop-color="#56F6EE" stop-opacity="0.84"/>
<stop offset="1" stop-color="#5AEAF2" stop-opacity="0.77"/>
</linearGradient>
<linearGradient id="paint1_linear_38_416" x1="190.764" y1="336.146" x2="285.214" y2="120.415" gradientUnits="userSpaceOnUse">
<stop offset="0.0277" stop-color="#4DFFCA"/>
<stop offset="0.7154" stop-color="#56F6EE" stop-opacity="0.84"/>
<stop offset="1" stop-color="#5AEAF2" stop-opacity="0.77"/>
</linearGradient>
<linearGradient id="paint2_linear_38_416" x1="223.448" y1="276.37" x2="281.481" y2="143.079" gradientUnits="userSpaceOnUse">
<stop offset="0.0277" stop-color="#4DFFCA"/>
<stop offset="0.7154" stop-color="#56F6EE" stop-opacity="0.84"/>
<stop offset="1" stop-color="#5AEAF2" stop-opacity="0.77"/>
</linearGradient>
</defs>
</svg>
