<svg width="1049" height="380" viewBox="0 0 1049 380" fill="none" xmlns="http://www.w3.org/2000/svg">
<path d="M731.002 335V77.6H1013.24V124.4H788.602V181.28H992.362V228.08H788.602V288.2H1013.24V335H731.002Z" fill="url(#paint0_linear_64_511)"/>
<path d="M433.002 335V78.32H490.602V183.08H576.282L660.882 78.32H732.522L626.682 206.48L732.522 335H660.882L575.922 229.88H490.602V335H433.002Z" fill="url(#paint1_linear_64_511)"/>
<path d="M55.9323 335.127L316.513 78.3884H416.054L415.005 335.127H344.883L345.106 280.907H181.085L126.054 335.127H55.9323ZM228.244 234.227H345.517L346.034 123.273H340.795L228.244 234.227Z" fill="url(#paint2_linear_64_511)"/>
<path d="M275.04 79.0322L226.16 124.801H57.5996V196.08H150.035L100.054 242.881H57.5996V335.4H0V78H275.04V79.0322Z" fill="url(#paint3_linear_64_511)"/>
<defs>
<linearGradient id="paint0_linear_64_511" x1="715.754" y1="413.278" x2="1018.9" y2="-26.8127" gradientUnits="userSpaceOnUse">
<stop stop-color="#00CFA6"/>
<stop offset="0.5" stop-color="#28EE59"/>
<stop offset="1" stop-color="#D0E816"/>
</linearGradient>
<linearGradient id="paint1_linear_64_511" x1="417.348" y1="439.903" x2="750.607" y2="3.93526" gradientUnits="userSpaceOnUse">
<stop stop-color="#00CFA6"/>
<stop offset="0.5" stop-color="#28EE59"/>
<stop offset="1" stop-color="#D0E816"/>
</linearGradient>
<linearGradient id="paint2_linear_64_511" x1="13.8703" y1="431.2" x2="520.096" y2="-85.5218" gradientUnits="userSpaceOnUse">
<stop stop-color="#00CFA6"/>
<stop offset="0.5" stop-color="#28EE59"/>
<stop offset="1" stop-color="#D0E816"/>
</linearGradient>
<linearGradient id="paint3_linear_64_511" x1="7.97989" y1="375.977" x2="217.42" y2="37.8292" gradientUnits="userSpaceOnUse">
<stop stop-color="#00CFA6"/>
<stop offset="0.5" stop-color="#28EE59"/>
<stop offset="1" stop-color="#D0E816"/>
</linearGradient>
</defs>
</svg>
